<svg width="128" height="128" viewBox="0 0 128 128" fill="none" xmlns="http://www.w3.org/2000/svg">
<rect width="128" height="128" rx="20" fill="#251E23"/>
<path d="M21.0002 85.3547C21.0002 97.2817 40.3156 107 64.0486 107C88.9336 107 107 97.8628 107 85.3547C107 80.7377 103.541 76.6008 97.105 73.2335L94.1211 34.3668C94.1211 33.9836 93.8313 33.5967 93.5452 33.3102C85.8571 27.8265 78.9385 24.3629 72.2122 22.73C71.5396 22.5365 70.867 22.4398 70.2911 22.25C67.9835 21.6734 65.6797 21.0968 63.2755 21C60.2954 21 57.4156 21.6734 54.6288 22.3468C47.7098 23.887 40.9838 27.6371 34.4515 33.4109C34.1617 33.7011 33.9722 33.9875 33.9722 34.3744L30.9921 73.1439C24.4595 76.6001 21 80.7372 21 85.3538L21.0002 85.3547ZM63.0859 23.8799C65.1036 23.9766 67.218 24.4565 69.4289 25.0332C70.1015 25.2266 70.7741 25.3233 71.4467 25.5131C77.5964 27.0533 84.0319 30.2267 91.1445 35.2305C90.5685 42.8311 77.2132 46.7745 63.9517 46.7745C50.693 46.7745 37.3353 42.7343 36.7589 35.1333C42.4293 30.1295 48.3862 26.8593 54.342 25.4159C53.6694 25.6094 53.2867 26.0893 53.2867 26.8594C53.2867 30.2263 58.474 31.7665 63.3748 31.7665C66.3549 31.7665 69.428 31.0931 71.2524 30.0365C71.925 29.6533 72.2148 28.7865 71.8284 28.1131C71.4456 27.4398 70.5798 27.1496 69.9073 27.5365C68.7554 28.1131 66.4478 28.8833 63.3748 28.8833C58.5702 28.8833 56.1697 27.3431 56.1697 26.8631C56.1697 26.093 55.4972 25.4197 54.728 25.4197H54.4382C54.7243 25.323 54.9175 25.2262 55.2073 25.2262C57.9943 24.5528 60.5879 23.8794 63.0849 23.8794L63.0859 23.8799ZM36.2793 40.9079C40.6046 46.2949 50.6929 49.6618 64.0476 49.6618C77.3063 49.6618 87.3983 46.3917 91.7199 41.0047L95.0828 84.681C95.0828 90.548 82.5898 96.8022 64.0478 96.8022C45.502 96.8022 33.0129 90.5484 33.0129 84.681C33.0129 84.5843 33.0129 84.3908 32.9163 84.2978L36.2793 40.9079ZM30.609 76.6012L30.033 84.4882C30.033 84.7784 30.033 84.9681 30.1296 85.1616C30.8022 93.3388 45.4088 99.5924 64.0478 99.5924C83.0731 99.6891 97.966 93.0521 97.966 84.6816V84.5849V84.4881L97.3901 76.694C101.808 79.2909 104.116 82.3712 104.116 85.3512C104.116 96.0324 86.9151 104.113 64.0477 104.113C42.2352 104.113 23.8825 95.5521 23.8825 85.355C23.8825 82.2746 26.2837 79.2947 30.609 76.6012Z" fill="#FDC02D"/>
<path fill-rule="evenodd" clip-rule="evenodd" d="M55.3702 60.0276C53.2703 62.4563 51.9936 65.7192 51.6067 69.2212C51.2172 72.7462 51.7278 76.5073 53.2061 79.9026C54.6785 83.2849 56.917 85.8584 59.483 87.3654C61.7701 88.7084 64.3185 89.2011 66.8121 88.6579L66.4026 88.4253C66.3855 88.4155 66.3698 88.405 66.3552 88.393L65.297 87.618C65.2843 87.6089 65.2726 87.5987 65.2616 87.5882L64.2484 86.6368C64.232 86.6215 64.2177 86.6048 64.205 86.5874L63.4166 85.5235C63.4074 85.5111 63.3994 85.4984 63.3921 85.4854L62.6672 84.3217C62.6596 84.309 62.6526 84.2963 62.6468 84.2832L62.0814 83.048C62.0723 83.0277 62.065 83.0066 62.0602 82.9856L61.6715 81.7152C61.6657 81.6963 61.6617 81.6774 61.6595 81.6586H61.6584L61.4886 80.3105C61.4854 80.2833 61.4854 80.2564 61.4886 80.2303L61.5441 78.9084C61.5445 78.8939 61.5459 78.8801 61.5485 78.8663L61.7741 77.5179C61.7785 77.4928 61.785 77.4689 61.7945 77.4464L62.2409 76.1705C62.2478 76.1513 62.2559 76.1332 62.2654 76.1161L62.8797 74.8951L62.8935 74.8704L64.3006 72.5752L64.9718 71.4068L65.5222 70.2028L65.9026 68.9611L66.1197 67.6108V66.3067L65.9022 65.008L65.5241 63.8268L64.9718 62.6189L64.2937 61.4384L63.5812 60.294L62.7453 59.1302L62.3493 58.6251L62.3336 58.6034L61.9303 58.1022L61.4653 57.7426L60.9138 57.4436L60.3035 57.292L59.679 57.2401L59.0545 57.292L58.4369 57.4454L57.931 57.6966L57.3912 58.0725L56.8524 58.501V58.5018L56.3524 58.9445L55.4103 59.991C55.3983 60.0044 55.3851 60.0167 55.3713 60.028L55.3702 60.0276ZM62.741 56.228C64.9817 56.1192 67.1998 56.8053 69.1814 58.144C71.3597 59.6154 73.2544 61.8743 74.5866 64.7315C75.9236 67.5992 76.5649 70.7928 76.5164 73.9128C76.4678 77.0265 75.7313 80.0659 74.3132 82.6325C74.2924 82.6702 74.2797 82.7102 74.2742 82.7504L73.577 83.7901L72.7554 84.8797L71.8269 85.8573L71.2987 86.2249L70.6946 86.607L70.0982 86.9303L69.4233 87.1883L68.8061 87.2906H68.1918L67.6031 87.1444L67.0888 86.8374L66.5607 86.4698L66.0208 85.9869L65.089 84.8968L64.3177 83.7465L63.7184 82.5552L63.5053 81.9724L63.3461 81.3392C63.3107 80.8846 63.2746 80.431 63.2366 79.9763V79.2821C63.3133 78.8264 63.3859 78.3742 63.4563 77.9174L63.614 77.2907L64.1586 76.0998L64.8839 74.8795L65.6186 73.756L66.353 72.5201H66.3522L66.3636 72.499L66.9848 71.2635C66.9921 71.2493 66.9983 71.2344 67.0034 71.2188L67.4483 69.8915C67.4556 69.8733 67.4618 69.8541 67.4659 69.8338L67.744 68.5064C67.7495 68.4861 67.7531 68.465 67.7549 68.4436L67.8677 67.0422C67.8692 67.0241 67.8695 67.0056 67.8677 66.9867L67.7542 65.5828C67.7531 65.5686 67.7513 65.5545 67.748 65.5403L67.4648 64.1926L67.4549 64.1556L67.0056 62.8152C67.0001 62.7974 66.9932 62.78 66.9844 62.7626L66.3668 61.5342L66.3486 61.5005C65.6113 60.3168 64.8587 59.1444 64.0714 57.993L62.7402 56.2284L62.741 56.228Z" fill="#FDC02D"/>
</svg>
